<?xml version="1.0" encoding="utf-8"?>
<!-- Generator: Adobe Illustrator 15.0.0, SVG Export Plug-In . SVG Version: 6.00 Build 0)  -->
<!DOCTYPE svg PUBLIC "-//W3C//DTD SVG 1.1//EN" "http://www.w3.org/Graphics/SVG/1.1/DTD/svg11.dtd">
<svg version="1.1" id="Ebene_1" xmlns="http://www.w3.org/2000/svg" xmlns:xlink="http://www.w3.org/1999/xlink" x="0px" y="0px"
	 width="64px" height="64px" viewBox="0 0 64 64" enable-background="new 0 0 64 64" xml:space="preserve">
<g>
	<g>
		<line fill="none" stroke="#1D1D1B" stroke-width="2" stroke-miterlimit="10" x1="22.612" y1="18.364" x2="39.936" y2="18.364"/>
		<line fill="none" stroke="#1D1D1B" stroke-width="2" stroke-miterlimit="10" x1="18.18" y1="18.364" x2="20.413" y2="18.364"/>
	</g>
	<g>
		<line fill="none" stroke="#1D1D1B" stroke-width="2" stroke-miterlimit="10" x1="22.612" y1="24.86" x2="39.936" y2="24.86"/>
		<line fill="none" stroke="#1D1D1B" stroke-width="2" stroke-miterlimit="10" x1="18.18" y1="24.86" x2="20.413" y2="24.86"/>
	</g>
	<g>
		<line fill="none" stroke="#1D1D1B" stroke-width="2" stroke-miterlimit="10" x1="22.612" y1="31.356" x2="39.936" y2="31.356"/>
		<line fill="none" stroke="#1D1D1B" stroke-width="2" stroke-miterlimit="10" x1="18.18" y1="31.356" x2="20.413" y2="31.356"/>
	</g>
	<g>
		<line fill="none" stroke="#1D1D1B" stroke-width="2" stroke-miterlimit="10" x1="22.612" y1="37.852" x2="39.936" y2="37.852"/>
		<line fill="none" stroke="#1D1D1B" stroke-width="2" stroke-miterlimit="10" x1="18.18" y1="37.852" x2="20.413" y2="37.852"/>
	</g>
	<g>
		<line fill="none" stroke="#1D1D1B" stroke-width="2" stroke-miterlimit="10" x1="21.76" y1="44.348" x2="35.75" y2="44.348"/>
		<line fill="none" stroke="#1D1D1B" stroke-width="2" stroke-miterlimit="10" x1="18.18" y1="44.348" x2="19.983" y2="44.348"/>
	</g>
</g>
<g>
	<polygon fill="#1D1D1B" stroke="#1D1D1B" stroke-width="1.8" stroke-linejoin="round" stroke-miterlimit="10" points="
		46.432,13.434 35.75,4.39 35.75,13.434 	"/>
</g>
<g display="none">
	<rect x="35.984" y="34.094" display="inline" fill="#FFFFFF" width="9.062" height="8.846"/>
	<path display="inline" fill="#FFFFFF" d="M44.547,34.594v7.846h-8.062v-7.846H44.547 M45.547,33.594H35.484v9.846h10.062
		L45.547,33.594L45.547,33.594z"/>
</g>
<path fill="none" stroke="#1D1D1B" stroke-width="2" stroke-linecap="round" stroke-linejoin="round" stroke-miterlimit="10" d="
	M46.432,51.495"/>
<polyline fill="none" stroke="#1D1D1B" stroke-width="3" stroke-linecap="round" stroke-linejoin="round" stroke-miterlimit="10" points="
	35.537,51.495 11.853,51.495 11.853,4.39 35.75,4.39 46.432,13.423 46.432,41.337 "/>
<g>
	<g>
		
			<line fill="none" stroke="#E30613" stroke-width="3" stroke-linecap="round" stroke-linejoin="round" stroke-miterlimit="10" x1="54.213" y1="44.046" x2="38.65" y2="59.609"/>
		
			<line fill="none" stroke="#E30613" stroke-width="3" stroke-linecap="round" stroke-linejoin="round" stroke-miterlimit="10" x1="54.213" y1="59.609" x2="38.65" y2="44.046"/>
	</g>
</g>
<line fill="none" stroke="#1D1D1B" stroke-width="3" stroke-linecap="square" stroke-linejoin="round" stroke-miterlimit="10" x1="46.432" y1="41.337" x2="46.432" y2="38.331"/>
<line fill="none" stroke="#1D1D1B" stroke-width="3" stroke-linecap="square" stroke-linejoin="round" stroke-miterlimit="10" x1="35.537" y1="51.495" x2="32.771" y2="51.495"/>
</svg>
